HIERARCHY
ROOT Hips
{
	OFFSET 0.000000 89.005402 0.000000
	CHANNELS 6 Xposition Yposition Zposition Xrotation Yrotation Zrotation
	JOINT Spine
	{
		OFFSET 0.116900 10.681000 0.373400
		CHANNELS 3 Xrotation Yrotation Zrotation
		JOINT Spine1
		{
			OFFSET 0.000000 13.840401 0.053500
			CHANNELS 3 Xrotation Yrotation Zrotation
			JOINT Spine2
			{
				OFFSET 0.000000 14.712700 -0.366200
				CHANNELS 3 Xrotation Yrotation Zrotation
				JOINT Neck
				{
					OFFSET 0.000000 35.415497 -3.314200
					CHANNELS 3 Xrotation Yrotation Zrotation
					JOINT Head
					{
						OFFSET 0.000000 16.899200 1.218300
						CHANNELS 3 Xrotation Yrotation Zrotation
						JOINT HeadTop_End
						{
							OFFSET 0.000000 22.206207 2.192500
							CHANNELS 3 Xrotation Yrotation Zrotation
							End Site
							{
								OFFSET 0.000000 22.314178 0.000000
							}
						}
					}
				}
				JOINT LeftShoulder
				{
					OFFSET 12.896400 26.716293 -4.548400
					CHANNELS 3 Xrotation Yrotation Zrotation
					JOINT LeftArm
					{
						OFFSET 19.027000 -4.857010 -1.718400
						CHANNELS 3 Xrotation Yrotation Zrotation
						JOINT LeftForeArm
						{
							OFFSET 24.179897 0.000000 0.000000
							CHANNELS 3 Xrotation Yrotation Zrotation
							JOINT LeftHand
							{
								OFFSET 27.156403 0.000000 0.000000
								CHANNELS 3 Xrotation Yrotation Zrotation
								JOINT LeftHandIndex1
								{
									OFFSET 16.441200 0.000000 0.000000
									CHANNELS 3 Xrotation Yrotation Zrotation
									JOINT LeftHandIndex2
									{
										OFFSET 4.821899 0.000000 0.000000
										CHANNELS 3 Xrotation Yrotation Zrotation
										JOINT LeftHandIndex3
										{
											OFFSET 6.386497 0.000000 0.000000
											CHANNELS 3 Xrotation Yrotation Zrotation
											JOINT LeftHandIndex4
											{
												OFFSET 5.188988 0.000000 0.000000
												CHANNELS 3 Xrotation Yrotation Zrotation
												End Site
												{
													OFFSET -0.178703 5.185913 0.000177
												}
											}
										}
									}
								}
								JOINT LeftHandThumb1
								{
									OFFSET 6.534897 -5.032593 5.900300
									CHANNELS 3 Xrotation Yrotation Zrotation
									JOINT LeftHandThumb2
									{
										OFFSET 3.818176 -2.204422 2.204423
										CHANNELS 3 Xrotation Yrotation Zrotation
										JOINT LeftHandThumb3
										{
											OFFSET 3.252098 -1.877594 1.877601
											CHANNELS 3 Xrotation Yrotation Zrotation
											JOINT LeftHandThumb4
											{
												OFFSET 5.251778 -3.032120 3.032117
												CHANNELS 3 Xrotation Yrotation Zrotation
												End Site
												{
													OFFSET 0.000023 6.780014 0.000000
												}
											}
										}
									}
								}
							}
						}
					}
				}
				JOINT RightShoulder
				{
					OFFSET -12.896300 26.716293 -4.548400
					CHANNELS 3 Xrotation Yrotation Zrotation
					JOINT RightArm
					{
						OFFSET -19.027000 -4.857010 -1.718400
						CHANNELS 3 Xrotation Yrotation Zrotation
						JOINT RightForeArm
						{
							OFFSET -24.179897 0.000000 0.000000
							CHANNELS 3 Xrotation Yrotation Zrotation
							JOINT RightHand
							{
								OFFSET -27.156403 0.000000 0.000000
								CHANNELS 3 Xrotation Yrotation Zrotation
								JOINT RightHandThumb1
								{
									OFFSET -6.591202 -4.852203 5.988100
									CHANNELS 3 Xrotation Yrotation Zrotation
									JOINT RightHandThumb2
									{
										OFFSET -3.818176 -2.204422 2.204423
										CHANNELS 3 Xrotation Yrotation Zrotation
										JOINT RightHandThumb3
										{
											OFFSET -3.252098 -1.877594 1.877601
											CHANNELS 3 Xrotation Yrotation Zrotation
											JOINT RightHandThumb4
											{
												OFFSET -5.251778 -3.032120 3.032117
												CHANNELS 3 Xrotation Yrotation Zrotation
												End Site
												{
													OFFSET -0.000023 6.780014 0.000000
												}
											}
										}
									}
								}
								JOINT RightHandIndex1
								{
									OFFSET -16.029404 0.000000 0.000000
									CHANNELS 3 Xrotation Yrotation Zrotation
									JOINT RightHandIndex2
									{
										OFFSET -5.213303 0.000000 0.000000
										CHANNELS 3 Xrotation Yrotation Zrotation
										JOINT RightHandIndex3
										{
											OFFSET -6.386528 0.000000 0.000000
											CHANNELS 3 Xrotation Yrotation Zrotation
											JOINT RightHandIndex4
											{
												OFFSET -5.189026 0.000000 0.000000
												CHANNELS 3 Xrotation Yrotation Zrotation
												End Site
												{
													OFFSET 0.236702 5.183624 0.001972
												}
											}
										}
									}
								}
							}
						}
					}
				}
			}
		}
	}
	JOINT LeftUpLeg
	{
		OFFSET 14.073000 -7.904099 -1.463000
		CHANNELS 3 Xrotation Yrotation Zrotation
		JOINT LeftLeg
		{
			OFFSET -0.109806 -34.073280 4.093200
			CHANNELS 3 Xrotation Yrotation Zrotation
			JOINT LeftFoot
			{
				OFFSET 0.109806 -29.899420 -6.319000
				CHANNELS 3 Xrotation Yrotation Zrotation
				JOINT LeftToeBase
				{
					OFFSET 1.551100 -14.988700 20.535801
					CHANNELS 3 Xrotation Yrotation Zrotation
					JOINT LeftToe_End
					{
						OFFSET 0.221200 0.570800 13.248301
						CHANNELS 3 Xrotation Yrotation Zrotation
						End Site
						{
							OFFSET 0.000000 13.262435 0.000000
						}
					}
				}
			}
		}
	}
	JOINT RightUpLeg
	{
		OFFSET -13.839300 -7.904099 -1.463000
		CHANNELS 3 Xrotation Yrotation Zrotation
		JOINT RightLeg
		{
			OFFSET 0.109694 -34.073219 4.093300
			CHANNELS 3 Xrotation Yrotation Zrotation
			JOINT RightFoot
			{
				OFFSET -0.109694 -29.899384 -6.319200
				CHANNELS 3 Xrotation Yrotation Zrotation
				JOINT RightToeBase
				{
					OFFSET -1.551100 -14.988700 20.535801
					CHANNELS 3 Xrotation Yrotation Zrotation
					JOINT RightToe_End
					{
						OFFSET -0.221200 0.570900 13.248299
						CHANNELS 3 Xrotation Yrotation Zrotation
						End Site
						{
							OFFSET 0.000000 13.262440 0.000000
						}
					}
				}
			}
		}
	}
}
MOTION
Frames: 7
Frame Time: 0.033333
-1.517729 84.411652 0.018574 -19.791349 -82.301409 -20.979831 2.271036 0.110334 0.044033 4.588851 0.048043 1.587649 4.566501 0.058994 1.631779 -6.449450 9.163141 -4.228991 1.306332 37.856658 -3.127864 -0.000000 -0.000000 -0.000000 -0.232475 4.637868 -1.359673 25.122278 -77.231251 -42.206201 0.000001 -14.145789 0.000000 -51.489869 1.622347 10.545748 0.013966 0.439250 -3.642315 0.025885 0.597745 -4.959527 0.006481 0.299164 -2.479702 0.000000 0.000000 0.000000 -3.708770 -5.344626 -9.285595 10.685378 16.536446 0.020116 2.736435 5.880185 2.697138 -0.000001 0.000000 0.000001 1.612989 4.329184 7.043630 8.595131 25.593735 60.579530 0.000008 32.803660 -0.000008 -7.794412 -23.342737 -5.537494 37.238034 11.415906 9.503674 21.038873 -27.717307 1.484828 6.453885 -9.653870 -2.759925 -0.000000 -0.000003 0.000000 2.191292 -5.070363 46.723535 2.298117 -5.168478 47.920771 0.598771 -2.827567 23.908519 -0.000001 -0.000003 -0.000000 -15.931759 14.881978 10.273594 28.535291 -3.410948 4.906168 -11.042148 1.643261 -7.962831 -0.000054 0.000007 0.000000 -0.000000 -0.000000 -0.000000 -10.676473 -23.470929 -9.203789 23.393173 9.440815 -8.661728 -11.078864 -2.140393 11.674612 -0.001931 0.000017 -0.000003 -0.000000 0.000000 -0.000000 
-1.526041 84.426567 0.011772 -20.023734 -82.283132 -21.209122 2.259386 0.089049 0.053000 4.568350 0.010019 1.625759 4.545689 0.020620 1.669544 -6.358688 9.200886 -4.344189 1.308285 37.902554 -3.127768 -0.000000 0.000001 -0.000000 -0.236516 4.731584 -1.616344 28.224968 -77.569079 -39.068190 -0.000001 -14.159482 -0.000003 -52.203214 1.758380 10.523195 0.013968 0.439249 -3.642313 0.025881 0.597744 -4.959526 0.006484 0.299164 -2.479703 -0.000001 -0.000000 0.000000 -3.708770 -5.344628 -9.285597 10.685382 16.536448 0.020114 2.736434 5.880187 2.697136 0.000001 0.000000 0.000001 1.625856 4.410189 6.848791 8.546708 25.709168 60.700970 -0.000007 32.649667 -0.000021 -7.850804 -23.139282 -5.600555 37.238372 11.416141 9.503745 21.039033 -27.717480 1.484849 6.453947 -9.653959 -2.759958 -0.000001 0.000002 -0.000001 2.191290 -5.070357 46.723504 2.298106 -5.168468 47.920768 0.598768 -2.827552 23.908526 0.000002 -0.000001 0.000001 -15.861977 14.894027 10.253966 28.471556 -3.407081 4.925279 -11.011365 1.646261 -7.973165 -0.000001 -0.000015 0.000001 0.000000 0.000000 -0.000000 -10.591499 -23.492671 -9.191503 23.322984 9.455788 -8.654424 -11.056502 -2.143370 11.672268 -0.001977 -0.000018 -0.000002 -0.000000 0.000001 0.000000 
-1.533046 84.442650 0.007606 -20.209369 -82.259199 -21.408893 2.243883 0.060653 0.082528 4.538630 -0.042535 1.674177 4.515265 -0.031856 1.717974 -6.262548 9.243666 -4.465037 1.306200 37.967768 -3.122504 -0.000000 0.000001 -0.000000 -0.241923 4.857628 -1.946193 31.985984 -77.874040 -35.281359 -0.000004 -14.200995 0.000000 -52.937050 1.809538 10.559745 0.013968 0.439250 -3.642315 0.025883 0.597742 -4.959526 0.006486 0.299164 -2.479701 -0.000002 -0.000002 -0.000000 -3.708768 -5.344622 -9.285598 10.685382 16.536445 0.020116 2.736437 5.880186 2.697138 -0.000002 0.000000 0.000001 1.642503 4.513238 6.629210 8.509106 25.847478 60.828456 0.000003 32.462175 -0.000002 -8.022602 -22.982055 -5.759600 37.238700 11.416379 9.503859 21.039201 -27.717650 1.484881 6.454020 -9.654056 -2.759947 -0.000000 0.000001 -0.000000 2.191279 -5.070357 46.723490 2.298119 -5.168477 47.920737 0.598770 -2.827550 23.908509 -0.000001 0.000003 0.000000 -15.795516 14.849764 10.256455 28.415697 -3.388521 4.925299 -10.987672 1.646966 -7.988586 -0.000028 0.000000 -0.000004 0.000000 0.000000 -0.000000 -10.488741 -23.495455 -9.168311 23.226072 9.449582 -8.610738 -11.020440 -2.144622 11.659195 -0.002030 -0.000000 0.000002 -0.000000 -0.000000 -0.000000 
-1.529029 84.455719 0.001498 -20.238474 -82.228545 -21.458904 2.235440 0.036786 0.129682 4.519638 -0.089361 1.726252 4.495334 -0.077923 1.770642 -6.186664 9.287368 -4.580748 1.286598 38.041736 -3.116079 -0.000000 0.000002 0.000000 -0.246492 4.979583 -2.258060 35.894912 -78.150943 -31.336782 0.000004 -14.217753 -0.000007 -53.770739 1.680974 10.706129 0.013969 0.439251 -3.642316 0.025882 0.597745 -4.959525 0.006484 0.299165 -2.479701 -0.000001 0.000000 -0.000000 -3.708772 -5.344625 -9.285597 10.685381 16.536448 0.020116 2.736435 5.880186 2.697136 -0.000002 -0.000001 0.000000 1.659760 4.618651 6.455629 8.485924 25.881264 60.941072 0.000019 32.359578 -0.000017 -8.183665 -22.908806 -5.973369 37.238990 11.416580 9.503938 21.039324 -27.717780 1.484878 6.454087 -9.654118 -2.759942 0.000000 -0.000002 0.000001 2.191375 -5.070446 46.724600 2.298216 -5.168573 47.921905 0.598794 -2.827611 23.909082 0.000001 -0.000003 -0.000001 -15.762927 14.759424 10.253954 28.373004 -3.342517 4.935991 -10.956198 1.647919 -8.018460 -0.000037 -0.000002 0.000003 -0.000000 -0.000000 0.000000 -10.412858 -23.498414 -9.139683 23.138055 9.432582 -8.566854 -10.980198 -2.149812 11.644643 -0.002113 -0.000000 0.000000 0.000000 -0.000000 -0.000000 
-1.494085 84.454681 -0.020066 -20.045951 -82.219509 -21.282274 2.247140 0.035370 0.175547 4.537761 -0.095035 1.771961 4.512692 -0.082131 1.817279 -6.156679 9.325416 -4.676050 1.213319 38.112630 -3.117112 -0.000000 -0.000002 -0.000000 -0.248986 5.035886 -2.392462 39.218991 -78.480725 -27.926361 -0.000007 -14.133335 -0.000017 -54.765987 1.299276 10.910580 0.013967 0.439249 -3.642314 0.025884 0.597745 -4.959526 0.006480 0.299165 -2.479703 0.000001 0.000001 -0.000001 -3.708773 -5.344623 -9.285599 10.685380 16.536448 0.020113 2.736435 5.880185 2.697137 0.000004 0.000000 0.000001 1.673019 4.701741 6.407464 8.466749 25.643964 61.012509 -0.000003 32.534302 0.000016 -8.129908 -22.979376 -6.155027 37.238963 11.416567 9.503911 21.039324 -27.717792 1.484883 6.454086 -9.654118 -2.759942 -0.000000 0.000002 -0.000001 2.191382 -5.070462 46.724761 2.298224 -5.168578 47.922052 0.598799 -2.827623 23.909159 0.000000 -0.000005 -0.000000 -15.820438 14.669691 10.239074 28.371663 -3.250024 4.989361 -10.907487 1.654174 -8.079234 -0.000098 0.000015 0.000001 0.000000 0.000002 0.000000 -10.479019 -23.466536 -9.078962 23.213764 9.358929 -8.608207 -10.994849 -2.148788 11.569985 -0.002262 0.000009 -0.000001 -0.000000 -0.000000 0.000000 
-1.402588 84.429039 -0.069767 -19.797261 -82.303636 -21.030060 2.288433 0.075619 0.181635 4.616216 -0.019715 1.794979 4.591255 -0.005120 1.840727 -6.189007 9.350516 -4.734787 1.020066 38.175030 -3.126556 -0.000000 0.000002 0.000000 -0.250650 5.006632 -2.274218 41.725650 -78.911293 -25.218621 0.000003 -14.003581 0.000004 -55.815910 0.733779 11.073734 0.013966 0.439249 -3.642315 0.025883 0.597744 -4.959525 0.006483 0.299165 -2.479703 0.000001 -0.000000 -0.000000 -3.708771 -5.344627 -9.285596 10.685382 16.536446 0.020115 2.736437 5.880186 2.697137 0.000000 0.000000 0.000001 1.675899 4.724596 6.488814 8.406022 25.091277 61.032221 0.000001 33.144900 -0.000013 -7.805407 -23.256839 -6.226358 37.238588 11.416309 9.503812 21.039155 -27.717598 1.484875 6.454007 -9.654019 -2.759930 -0.000001 -0.000003 0.000001 2.191347 -5.070416 46.724262 2.298175 -5.168534 47.921529 0.598787 -2.827606 23.908894 -0.000001 0.000004 0.000001 -16.003815 14.689369 10.222402 28.436579 -3.120792 5.114852 -10.842129 1.668175 -8.181708 -0.000004 0.000009 -0.000003 0.000000 -0.000000 0.000000 -10.774104 -23.289883 -8.960576 23.556038 9.187868 -8.790150 -11.079976 -2.144455 11.423604 -0.002496 0.000004 0.000001 0.000000 -0.000001 0.000000 
-1.230460 84.384865 -0.151811 -20.050819 -82.585156 -21.238950 2.359543 0.166336 0.096481 4.764471 0.161651 1.769683 4.741214 0.176970 1.814185 -6.286130 9.357647 -4.745710 0.617473 38.234774 -3.127701 0.000000 -0.000002 0.000000 -0.254393 4.960596 -2.026237 43.727779 -79.241089 -22.827802 0.000002 -14.194363 -0.000000 -56.578388 0.254670 11.214948 0.013966 0.439248 -3.642315 0.025883 0.597743 -4.959525 0.006483 0.299164 -2.479703 -0.000002 0.000001 -0.000000 -3.708771 -5.344626 -9.285597 10.685382 16.536446 0.020114 2.736438 5.880186 2.697137 0.000000 0.000000 -0.000000 1.661297 4.637916 6.632722 8.241813 24.398829 60.982470 -0.000001 34.229227 0.000015 -7.462102 -23.757901 -6.170394 37.238103 11.415960 9.503666 21.038907 -27.717340 1.484826 6.453897 -9.653879 -2.759934 0.000001 0.000001 -0.000000 2.191290 -5.070364 46.723610 2.298117 -5.168483 47.920863 0.598773 -2.827554 23.908572 0.000001 -0.000001 0.000000 -16.257699 14.986234 10.200004 28.519559 -3.017727 5.358738 -10.748040 1.686382 -8.332517 -0.000048 0.000009 -0.000002 -0.000000 0.000000 -0.000000 -11.321827 -22.869835 -8.756244 24.183888 8.940852 -9.154458 -11.197768 -2.136960 11.186702 -0.002823 -0.000022 -0.000001 0.000000 0.000000 0.000000 
